<svg xmlns="http://www.w3.org/2000/svg" viewBox="0 0 1240 56" fill="none" aria-hidden="true">
  <path d="M0 12.0L14 12.6L28 13.1L42 13.6L56 14.2L70 14.6L84 15.1L98 15.5L112 15.8L126 16.1L140 16.3L154 16.5L168 16.6L182 16.7L196 16.7L210 16.6L224 16.5L238 16.4L252 16.3L266 16.1L280 15.9L294 15.7L308 15.5L322 15.3L336 15.1L350 14.9L364 14.8L378 14.6L392 14.6L406 14.5L420 14.5L434 14.5L448 14.6L462 14.7L476 14.8L490 15.0L504 15.1L518 15.3L532 15.5L546 15.7L560 15.9L574 16.1L588 16.2L602 16.4L616 16.5L630 16.5L644 16.5L658 16.4L672 16.3L686 16.2L700 15.9L714 15.7L728 15.3L742 15.0L756 14.5L770 14.1L784 13.6L798 13.0L812 12.5L826 11.9L840 11.4L854 10.8L868 10.3L882 9.8L896 9.3L910 8.8L924 8.4L938 8.1L952 7.8L966 7.6L980 7.4L994 7.3L1008 7.2L1022 7.2L1036 7.2L1050 7.3L1064 7.4L1078 7.6L1092 7.8L1106 8.0L1120 8.2L1134 8.4L1148 8.6L1162 8.8L1176 9.0L1190 9.2L1204 9.3L1218 9.4L1232 9.5" stroke="#F4EFE6" stroke-opacity="0.18" stroke-width="1.2"></path>
  <path d="M0 27.9L14 28.0L28 28.0L42 28.0L56 27.9L70 27.8L84 27.7L98 27.5L112 27.2L126 27.0L140 26.7L154 26.5L168 26.2L182 26.0L196 25.8L210 25.5L224 25.4L238 25.2L252 25.1L266 25.0L280 25.0L294 25.0L308 25.0L322 25.1L336 25.2L350 25.3L364 25.4L378 25.6L392 25.7L406 25.9L420 26.0L434 26.2L448 26.2L462 26.3L476 26.3L490 26.3L504 26.3L518 26.1L532 26.0L546 25.7L560 25.5L574 25.1L588 24.8L602 24.3L616 23.9L630 23.4L644 22.9L658 22.3L672 21.8L686 21.2L700 20.7L714 20.1L728 19.6L742 19.2L756 18.7L770 18.3L784 18.0L798 17.7L812 17.5L826 17.3L840 17.2L854 17.2L868 17.2L882 17.3L896 17.4L910 17.5L924 17.7L938 18.0L952 18.2L966 18.5L980 18.7L994 19.0L1008 19.3L1022 19.5L1036 19.8L1050 20.0L1064 20.1L1078 20.3L1092 20.4L1106 20.4L1120 20.4L1134 20.4L1148 20.4L1162 20.3L1176 20.2L1190 20.1L1204 19.9L1218 19.8L1232 19.6" stroke="#F4EFE6" stroke-opacity="0.16" stroke-width="1.2"></path>
  <path d="M0 37.3L14 37.0L28 36.7L42 36.4L56 36.1L70 35.9L84 35.7L98 35.5L112 35.4L126 35.3L140 35.2L154 35.2L168 35.2L182 35.2L196 35.3L210 35.4L224 35.5L238 35.6L252 35.7L266 35.8L280 35.9L294 36.0L308 36.1L322 36.1L336 36.1L350 36.0L364 35.9L378 35.7L392 35.5L406 35.2L420 34.9L434 34.5L448 34.1L462 33.7L476 33.2L490 32.7L504 32.2L518 31.6L532 31.1L546 30.6L560 30.1L574 29.6L588 29.1L602 28.7L616 28.4L630 28.0L644 27.8L658 27.6L672 27.4L686 27.4L700 27.4L714 27.4L728 27.5L742 27.6L756 27.8L770 28.1L784 28.3L798 28.6L812 29.0L826 29.3L840 29.6L854 29.9L868 30.2L882 30.5L896 30.8L910 31.0L924 31.2L938 31.4L952 31.5L966 31.6L980 31.6L994 31.6L1008 31.6L1022 31.5L1036 31.5L1050 31.4L1064 31.3L1078 31.1L1092 31.0L1106 30.9L1120 30.9L1134 30.8L1148 30.8L1162 30.8L1176 30.9L1190 31.0L1204 31.1L1218 31.3L1232 31.6" stroke="#F4EFE6" stroke-opacity="0.14" stroke-width="1.2"></path>
  <path d="M0 45.2L14 45.1L28 45.1L42 45.2L56 45.2L70 45.3L84 45.4L98 45.5L112 45.6L126 45.6L140 45.7L154 45.7L168 45.8L182 45.7L196 45.7L210 45.6L224 45.4L238 45.2L252 45.0L266 44.7L280 44.3L294 44.0L308 43.5L322 43.1L336 42.6L350 42.1L364 41.6L378 41.1L392 40.6L406 40.1L420 39.7L434 39.3L448 38.9L462 38.5L476 38.2L490 38.0L504 37.8L518 37.7L532 37.7L546 37.7L560 37.8L574 37.9L588 38.1L602 38.3L616 38.6L630 38.9L644 39.3L658 39.6L672 40.0L686 40.4L700 40.8L714 41.1L728 41.5L742 41.8L756 42.1L770 42.3L784 42.6L798 42.7L812 42.9L826 43.0L840 43.0L854 43.0L868 43.0L882 43.0L896 42.9L910 42.8L924 42.8L938 42.7L952 42.6L966 42.5L980 42.5L994 42.5L1008 42.5L1022 42.5L1036 42.6L1050 42.8L1064 42.9L1078 43.2L1092 43.5L1106 43.8L1120 44.1L1134 44.6L1148 45.0L1162 45.5L1176 45.9L1190 46.4L1204 46.9L1218 47.4L1232 47.9" stroke="#F4EFE6" stroke-opacity="0.12" stroke-width="1.2"></path>
</svg>