<svg xmlns="http://www.w3.org/2000/svg" viewBox="0 0 1240 560" fill="none" role="img" aria-label="Cedarwave grainwave motif">
  <path d="M0 18.0L14 18.6L28 19.2L42 19.8L56 20.4L70 20.9L84 21.4L98 21.9L112 22.3L126 22.7L140 23.0L154 23.2L168 23.4L182 23.5L196 23.6L210 23.6L224 23.6L238 23.4L252 23.3L266 23.1L280 22.9L294 22.6L308 22.3L322 22.0L336 21.6L350 21.2L364 20.9L378 20.5L392 20.1L406 19.7L420 19.3L434 18.9L448 18.5L462 18.1L476 17.8L490 17.4L504 17.0L518 16.6L532 16.2L546 15.8L560 15.4L574 15.0L588 14.6L602 14.1L616 13.7L630 13.2L644 12.7L658 12.2L672 11.7L686 11.1L700 10.6L714 10.0L728 9.4L742 8.8L756 8.3L770 7.7L784 7.1L798 6.6L812 6.1L826 5.6L840 5.2L854 4.8L868 4.4L882 4.1L896 3.8L910 3.6L924 3.5L938 3.4L952 3.4L966 3.4L980 3.5L994 3.7L1008 3.9L1022 4.2L1036 4.5L1050 4.9L1064 5.4L1078 5.9L1092 6.4L1106 7.0L1120 7.6L1134 8.2L1148 8.9L1162 9.6L1176 10.3L1190 11.0L1204 11.6L1218 12.3L1232 13.0" stroke="#26594A" stroke-opacity="0.18" stroke-width="1.3"></path>
  <path d="M0 43.7L14 44.0L28 44.3L42 44.5L56 44.6L70 44.7L84 44.7L98 44.7L112 44.6L126 44.5L140 44.3L154 44.1L168 43.9L182 43.6L196 43.3L210 43.0L224 42.8L238 42.5L252 42.2L266 41.9L280 41.6L294 41.4L308 41.1L322 40.9L336 40.7L350 40.5L364 40.3L378 40.1L392 40.0L406 39.8L420 39.6L434 39.4L448 39.2L462 38.9L476 38.6L490 38.3L504 37.9L518 37.5L532 37.0L546 36.5L560 35.8L574 35.2L588 34.5L602 33.7L616 32.8L630 31.9L644 31.0L658 30.0L672 29.1L686 28.1L700 27.0L714 26.1L728 25.1L742 24.1L756 23.3L770 22.4L784 21.7L798 21.0L812 20.4L826 20.0L840 19.6L854 19.3L868 19.2L882 19.2L896 19.3L910 19.5L924 19.8L938 20.2L952 20.8L966 21.4L980 22.1L994 22.9L1008 23.8L1022 24.7L1036 25.6L1050 26.6L1064 27.6L1078 28.6L1092 29.6L1106 30.5L1120 31.5L1134 32.4L1148 33.3L1162 34.1L1176 34.9L1190 35.6L1204 36.2L1218 36.8L1232 37.3" stroke="#26594A" stroke-opacity="0.19" stroke-width="1.3"></path>
  <path d="M0 65.5L14 65.3L28 65.1L42 64.9L56 64.6L70 64.4L84 64.1L98 63.8L112 63.6L126 63.3L140 63.1L154 62.8L168 62.6L182 62.5L196 62.3L210 62.2L224 62.1L238 62.0L252 61.9L266 61.9L280 61.8L294 61.8L308 61.8L322 61.7L336 61.7L350 61.6L364 61.5L378 61.4L392 61.2L406 60.9L420 60.6L434 60.2L448 59.8L462 59.3L476 58.7L490 58.0L504 57.2L518 56.4L532 55.4L546 54.4L560 53.4L574 52.2L588 51.1L602 49.9L616 48.6L630 47.4L644 46.1L658 44.9L672 43.7L686 42.6L700 41.5L714 40.5L728 39.6L742 38.8L756 38.1L770 37.5L784 37.1L798 36.8L812 36.7L826 36.7L840 36.9L854 37.2L868 37.6L882 38.2L896 38.9L910 39.7L924 40.6L938 41.6L952 42.6L966 43.7L980 44.8L994 46.0L1008 47.1L1022 48.3L1036 49.4L1050 50.5L1064 51.6L1078 52.6L1092 53.5L1106 54.4L1120 55.2L1134 55.9L1148 56.6L1162 57.2L1176 57.7L1190 58.1L1204 58.5L1218 58.8L1232 59.1" stroke="#26594A" stroke-opacity="0.19" stroke-width="1.3"></path>
  <path d="M0 84.3L14 84.1L28 83.8L42 83.6L56 83.5L70 83.3L84 83.2L98 83.1L112 83.1L126 83.0L140 83.0L154 83.0L168 83.1L182 83.1L196 83.1L210 83.2L224 83.2L238 83.2L252 83.2L266 83.2L280 83.1L294 83.0L308 82.8L322 82.6L336 82.3L350 82.0L364 81.5L378 81.1L392 80.5L406 79.8L420 79.1L434 78.3L448 77.4L462 76.5L476 75.5L490 74.4L504 73.3L518 72.2L532 71.0L546 69.8L560 68.6L574 67.3L588 66.1L602 65.0L616 63.8L630 62.7L644 61.7L658 60.7L672 59.8L686 59.0L700 58.4L714 57.8L728 57.3L742 57.0L756 56.8L770 56.8L784 56.8L798 57.0L812 57.4L826 57.8L840 58.4L854 59.0L868 59.8L882 60.6L896 61.5L910 62.5L924 63.5L938 64.5L952 65.6L966 66.7L980 67.7L994 68.8L1008 69.8L1022 70.7L1036 71.7L1050 72.6L1064 73.4L1078 74.2L1092 74.9L1106 75.6L1120 76.2L1134 76.8L1148 77.3L1162 77.8L1176 78.2L1190 78.7L1204 79.1L1218 79.5L1232 79.9" stroke="#26594A" stroke-opacity="0.20" stroke-width="1.3"></path>
  <path d="M0 104.0L14 104.0L28 104.0L42 104.0L56 104.1L70 104.1L84 104.2L98 104.3L112 104.3L126 104.4L140 104.4L154 104.4L168 104.3L182 104.2L196 104.1L210 103.9L224 103.7L238 103.4L252 103.1L266 102.7L280 102.2L294 101.7L308 101.2L322 100.6L336 99.9L350 99.2L364 98.4L378 97.6L392 96.8L406 95.9L420 95.0L434 94.1L448 93.2L462 92.3L476 91.3L490 90.4L504 89.4L518 88.5L532 87.6L546 86.7L560 85.8L574 85.0L588 84.2L602 83.4L616 82.7L630 82.0L644 81.4L658 80.9L672 80.4L686 80.0L700 79.6L714 79.3L728 79.1L742 79.0L756 79.0L770 79.0L784 79.1L798 79.3L812 79.6L826 80.0L840 80.4L854 80.9L868 81.5L882 82.1L896 82.8L910 83.6L924 84.3L938 85.2L952 86.0L966 86.9L980 87.7L994 88.6L1008 89.5L1022 90.4L1036 91.3L1050 92.2L1064 93.1L1078 94.0L1092 94.8L1106 95.7L1120 96.5L1134 97.3L1148 98.1L1162 98.9L1176 99.7L1190 100.5L1204 101.2L1218 101.9L1232 102.6" stroke="#26594A" stroke-opacity="0.21" stroke-width="1.3"></path>
  <path d="M0 125.3L14 125.3L28 125.3L42 125.3L56 125.2L70 125.1L84 125.0L98 124.8L112 124.5L126 124.2L140 123.9L154 123.5L168 123.1L182 122.6L196 122.1L210 121.6L224 121.0L238 120.4L252 119.8L266 119.2L280 118.6L294 117.9L308 117.3L322 116.7L336 116.1L350 115.4L364 114.9L378 114.3L392 113.7L406 113.2L420 112.6L434 112.1L448 111.6L462 111.1L476 110.7L490 110.2L504 109.7L518 109.2L532 108.7L546 108.2L560 107.7L574 107.1L588 106.6L602 106.0L616 105.4L630 104.8L644 104.2L658 103.6L672 103.0L686 102.5L700 101.9L714 101.4L728 100.9L742 100.5L756 100.1L770 99.8L784 99.6L798 99.4L812 99.4L826 99.4L840 99.6L854 99.8L868 100.2L882 100.6L896 101.2L910 101.9L924 102.6L938 103.5L952 104.4L966 105.4L980 106.5L994 107.6L1008 108.8L1022 110.1L1036 111.3L1050 112.6L1064 113.9L1078 115.1L1092 116.4L1106 117.6L1120 118.8L1134 120.0L1148 121.1L1162 122.1L1176 123.1L1190 124.0L1204 124.9L1218 125.6L1232 126.3" stroke="#26594A" stroke-opacity="0.21" stroke-width="1.3"></path>
  <path d="M0 145.2L14 144.8L28 144.5L42 144.1L56 143.6L70 143.2L84 142.7L98 142.1L112 141.6L126 141.1L140 140.5L154 140.0L168 139.4L182 138.9L196 138.4L210 137.9L224 137.5L238 137.1L252 136.7L266 136.4L280 136.1L294 135.9L308 135.7L322 135.5L336 135.4L350 135.3L364 135.2L378 135.1L392 135.1L406 135.0L420 134.9L434 134.8L448 134.6L462 134.4L476 134.2L490 133.9L504 133.5L518 133.1L532 132.5L546 131.9L560 131.2L574 130.5L588 129.6L602 128.7L616 127.7L630 126.7L644 125.7L658 124.6L672 123.6L686 122.5L700 121.5L714 120.5L728 119.6L742 118.8L756 118.1L770 117.5L784 117.1L798 116.8L812 116.6L826 116.7L840 116.8L854 117.2L868 117.7L882 118.4L896 119.3L910 120.2L924 121.4L938 122.6L952 124.0L966 125.4L980 126.9L994 128.4L1008 130.0L1022 131.6L1036 133.2L1050 134.7L1064 136.2L1078 137.7L1092 139.0L1106 140.3L1120 141.5L1134 142.6L1148 143.6L1162 144.4L1176 145.1L1190 145.7L1204 146.2L1218 146.5L1232 146.8" stroke="#26594A" stroke-opacity="0.22" stroke-width="1.3"></path>
  <path d="M0 162.0L14 161.5L28 160.9L42 160.4L56 159.9L70 159.5L84 159.0L98 158.6L112 158.3L126 158.0L140 157.8L154 157.6L168 157.5L182 157.4L196 157.4L210 157.4L224 157.5L238 157.6L252 157.8L266 158.0L280 158.3L294 158.5L308 158.7L322 159.0L336 159.2L350 159.4L364 159.6L378 159.7L392 159.7L406 159.6L420 159.5L434 159.3L448 159.0L462 158.6L476 158.0L490 157.4L504 156.6L518 155.7L532 154.7L546 153.6L560 152.4L574 151.2L588 149.8L602 148.5L616 147.0L630 145.6L644 144.2L658 142.8L672 141.4L686 140.1L700 138.9L714 137.8L728 136.8L742 136.0L756 135.4L770 134.9L784 134.6L798 134.5L812 134.6L826 134.9L840 135.3L854 136.0L868 136.8L882 137.8L896 139.0L910 140.3L924 141.6L938 143.1L952 144.6L966 146.2L980 147.8L994 149.4L1008 151.0L1022 152.5L1036 153.9L1050 155.3L1064 156.6L1078 157.8L1092 158.8L1106 159.7L1120 160.6L1134 161.3L1148 161.8L1162 162.3L1176 162.6L1190 162.8L1204 162.9L1218 163.0L1232 162.9" stroke="#26594A" stroke-opacity="0.23" stroke-width="1.3"></path>
  <path d="M0 179.0L14 178.8L28 178.6L42 178.5L56 178.5L70 178.5L84 178.6L98 178.7L112 178.9L126 179.2L140 179.5L154 179.8L168 180.2L182 180.6L196 181.0L210 181.4L224 181.9L238 182.3L252 182.6L266 183.0L280 183.3L294 183.5L308 183.7L322 183.9L336 183.9L350 183.9L364 183.8L378 183.5L392 183.2L406 182.8L420 182.2L434 181.6L448 180.8L462 180.0L476 179.0L490 177.9L504 176.8L518 175.5L532 174.2L546 172.8L560 171.4L574 169.9L588 168.3L602 166.8L616 165.3L630 163.8L644 162.3L658 160.9L672 159.6L686 158.4L700 157.2L714 156.2L728 155.4L742 154.7L756 154.1L770 153.8L784 153.6L798 153.5L812 153.7L826 154.0L840 154.5L854 155.1L868 155.9L882 156.8L896 157.8L910 158.9L924 160.1L938 161.3L952 162.6L966 163.9L980 165.2L994 166.4L1008 167.7L1022 168.9L1036 170.0L1050 171.1L1064 172.1L1078 173.1L1092 173.9L1106 174.7L1120 175.4L1134 176.0L1148 176.5L1162 177.0L1176 177.4L1190 177.7L1204 178.0L1218 178.3L1232 178.5" stroke="#26594A" stroke-opacity="0.24" stroke-width="1.3"></path>
  <path d="M0 200.2L14 200.6L28 200.9L42 201.3L56 201.8L70 202.2L84 202.7L98 203.2L112 203.6L126 204.1L140 204.6L154 205.0L168 205.4L182 205.8L196 206.1L210 206.4L224 206.6L238 206.7L252 206.8L266 206.9L280 206.8L294 206.7L308 206.6L322 206.3L336 206.0L350 205.6L364 205.2L378 204.6L392 204.0L406 203.3L420 202.6L434 201.7L448 200.8L462 199.8L476 198.8L490 197.7L504 196.5L518 195.2L532 193.9L546 192.5L560 191.1L574 189.7L588 188.2L602 186.7L616 185.1L630 183.6L644 182.1L658 180.6L672 179.2L686 177.8L700 176.5L714 175.3L728 174.2L742 173.2L756 172.3L770 171.6L784 171.0L798 170.6L812 170.3L826 170.2L840 170.2L854 170.4L868 170.7L882 171.2L896 171.8L910 172.6L924 173.5L938 174.4L952 175.5L966 176.6L980 177.8L994 179.0L1008 180.2L1022 181.5L1036 182.8L1050 184.1L1064 185.3L1078 186.6L1092 187.8L1106 188.9L1120 190.1L1134 191.2L1148 192.2L1162 193.2L1176 194.2L1190 195.1L1204 196.0L1218 196.8L1232 197.6" stroke="#26594A" stroke-opacity="0.25" stroke-width="1.3"></path>
  <path d="M0 225.2L14 225.7L28 226.1L42 226.6L56 227.0L70 227.3L84 227.7L98 228.0L112 228.2L126 228.4L140 228.6L154 228.7L168 228.7L182 228.8L196 228.7L210 228.7L224 228.6L238 228.4L252 228.3L266 228.1L280 227.8L294 227.6L308 227.3L322 226.9L336 226.6L350 226.2L364 225.8L378 225.3L392 224.8L406 224.2L420 223.6L434 222.8L448 222.1L462 221.2L476 220.2L490 219.2L504 218.0L518 216.8L532 215.4L546 213.9L560 212.3L574 210.6L588 208.9L602 207.0L616 205.1L630 203.1L644 201.0L658 199.0L672 196.9L686 194.9L700 192.9L714 191.0L728 189.2L742 187.5L756 186.0L770 184.6L784 183.4L798 182.4L812 181.6L826 181.0L840 180.7L854 180.6L868 180.8L882 181.1L896 181.7L910 182.6L924 183.6L938 184.8L952 186.2L966 187.7L980 189.3L994 191.1L1008 192.9L1022 194.8L1036 196.8L1050 198.7L1064 200.7L1078 202.7L1092 204.6L1106 206.4L1120 208.2L1134 209.9L1148 211.5L1162 213.1L1176 214.5L1190 215.8L1204 217.0L1218 218.2L1232 219.1" stroke="#26594A" stroke-opacity="0.26" stroke-width="1.3"></path>
  <path d="M0 249.5L14 249.7L28 249.8L42 249.9L56 250.0L70 250.0L84 250.0L98 250.0L112 250.0L126 249.9L140 249.8L154 249.8L168 249.7L182 249.6L196 249.6L210 249.5L224 249.4L238 249.4L252 249.3L266 249.3L280 249.2L294 249.1L308 249.0L322 248.9L336 248.8L350 248.6L364 248.3L378 248.0L392 247.6L406 247.0L420 246.4L434 245.6L448 244.7L462 243.6L476 242.4L490 241.0L504 239.4L518 237.7L532 235.8L546 233.7L560 231.4L574 229.0L588 226.4L602 223.7L616 221.0L630 218.1L644 215.3L658 212.4L672 209.5L686 206.7L700 204.0L714 201.5L728 199.1L742 196.9L756 194.9L770 193.2L784 191.8L798 190.7L812 189.9L826 189.4L840 189.3L854 189.5L868 190.0L882 190.8L896 192.0L910 193.4L924 195.1L938 197.0L952 199.1L966 201.4L980 203.8L994 206.3L1008 208.8L1022 211.4L1036 214.0L1050 216.6L1064 219.2L1078 221.6L1092 224.0L1106 226.2L1120 228.3L1134 230.3L1148 232.1L1162 233.7L1176 235.2L1190 236.6L1204 237.8L1218 238.8L1232 239.7" stroke="#26594A" stroke-opacity="0.27" stroke-width="1.3"></path>
  <path d="M0 271.0L14 271.0L28 271.0L42 270.9L56 270.9L70 270.9L84 270.9L98 270.9L112 271.0L126 271.0L140 271.1L154 271.3L168 271.4L182 271.6L196 271.7L210 271.9L224 272.1L238 272.3L252 272.4L266 272.5L280 272.6L294 272.6L308 272.6L322 272.4L336 272.2L350 271.8L364 271.3L378 270.7L392 269.9L406 269.0L420 267.8L434 266.5L448 265.0L462 263.2L476 261.3L490 259.1L504 256.8L518 254.2L532 251.5L546 248.6L560 245.5L574 242.3L588 239.0L602 235.7L616 232.2L630 228.8L644 225.4L658 222.0L672 218.8L686 215.7L700 212.7L714 210.0L728 207.6L742 205.4L756 203.6L770 202.1L784 200.9L798 200.1L812 199.7L826 199.7L840 200.1L854 200.8L868 201.9L882 203.3L896 205.0L910 207.0L924 209.3L938 211.8L952 214.4L966 217.2L980 220.0L994 223.0L1008 225.9L1022 228.9L1036 231.8L1050 234.6L1064 237.3L1078 239.9L1092 242.4L1106 244.7L1120 246.9L1134 248.9L1148 250.7L1162 252.4L1176 254.0L1190 255.4L1204 256.6L1218 257.7L1232 258.7" stroke="#26594A" stroke-opacity="0.29" stroke-width="1.3"></path>
  <path d="M0 292.2L14 292.3L28 292.5L42 292.7L56 292.9L70 293.2L84 293.4L98 293.8L112 294.1L126 294.4L140 294.8L154 295.2L168 295.6L182 295.9L196 296.3L210 296.6L224 297.0L238 297.3L252 297.6L266 297.9L280 298.1L294 298.4L308 298.6L322 298.9L336 299.1L350 299.4L364 299.7L378 300.0L392 300.4L406 300.8L420 301.3L434 301.8L448 302.5L462 303.3L476 304.2L490 305.2L504 306.4L518 307.7L532 309.1L546 310.7L560 312.4L574 314.3L588 316.3L602 318.4L616 320.6L630 322.8L644 325.1L658 327.4L672 329.7L686 331.9L700 334.0L714 336.1L728 338.0L742 339.7L756 341.2L770 342.5L784 343.6L798 344.3L812 344.8L826 345.0L840 344.8L854 344.4L868 343.7L882 342.6L896 341.3L910 339.8L924 338.0L938 335.9L952 333.7L966 331.4L980 328.9L994 326.4L1008 323.7L1022 321.1L1036 318.4L1050 315.8L1064 313.3L1078 310.8L1092 308.5L1106 306.2L1120 304.1L1134 302.2L1148 300.5L1162 298.9L1176 297.4L1190 296.2L1204 295.2L1218 294.3L1232 293.6" stroke="#26594A" stroke-opacity="0.28" stroke-width="1.3"></path>
  <path d="M0 315.3L14 315.6L28 316.0L42 316.3L56 316.6L70 316.9L84 317.2L98 317.4L112 317.6L126 317.8L140 317.9L154 317.9L168 317.9L182 317.9L196 317.8L210 317.7L224 317.5L238 317.3L252 317.1L266 316.8L280 316.6L294 316.3L308 316.0L322 315.8L336 315.6L350 315.4L364 315.4L378 315.3L392 315.4L406 315.6L420 315.9L434 316.4L448 317.0L462 317.8L476 318.7L490 319.7L504 321.0L518 322.4L532 324.0L546 325.7L560 327.6L574 329.6L588 331.8L602 334.0L616 336.3L630 338.6L644 340.9L658 343.3L672 345.5L686 347.7L700 349.8L714 351.8L728 353.6L742 355.1L756 356.5L770 357.6L784 358.4L798 359.0L812 359.3L826 359.3L840 359.0L854 358.4L868 357.5L882 356.4L896 355.1L910 353.5L924 351.8L938 349.9L952 347.9L966 345.7L980 343.5L994 341.3L1008 339.1L1022 336.9L1036 334.7L1050 332.6L1064 330.7L1078 328.8L1092 327.1L1106 325.5L1120 324.1L1134 322.8L1148 321.7L1162 320.7L1176 319.9L1190 319.3L1204 318.8L1218 318.4L1232 318.1" stroke="#26594A" stroke-opacity="0.26" stroke-width="1.3"></path>
  <path d="M0 338.6L14 338.7L28 338.7L42 338.7L56 338.6L70 338.5L84 338.3L98 338.0L112 337.7L126 337.3L140 336.9L154 336.5L168 336.0L182 335.5L196 335.0L210 334.5L224 333.9L238 333.4L252 332.9L266 332.5L280 332.1L294 331.7L308 331.5L322 331.3L336 331.2L350 331.2L364 331.3L378 331.5L392 331.9L406 332.4L420 333.0L434 333.8L448 334.7L462 335.8L476 337.0L490 338.3L504 339.8L518 341.4L532 343.1L546 344.9L560 346.8L574 348.7L588 350.8L602 352.8L616 354.9L630 356.9L644 359.0L658 360.9L672 362.8L686 364.6L700 366.3L714 367.8L728 369.1L742 370.3L756 371.3L770 372.0L784 372.5L798 372.9L812 373.0L826 372.8L840 372.5L854 371.9L868 371.2L882 370.3L896 369.2L910 368.0L924 366.7L938 365.3L952 363.8L966 362.2L980 360.7L994 359.1L1008 357.6L1022 356.1L1036 354.7L1050 353.3L1064 352.0L1078 350.8L1092 349.6L1106 348.6L1120 347.7L1134 346.8L1148 346.1L1162 345.4L1176 344.8L1190 344.3L1204 343.8L1218 343.4L1232 343.0" stroke="#26594A" stroke-opacity="0.25" stroke-width="1.3"></path>
  <path d="M0 358.2L14 357.7L28 357.3L42 356.8L56 356.2L70 355.6L84 355.1L98 354.5L112 353.9L126 353.3L140 352.7L154 352.1L168 351.6L182 351.1L196 350.7L210 350.3L224 350.0L238 349.7L252 349.6L266 349.5L280 349.4L294 349.5L308 349.6L322 349.9L336 350.2L350 350.6L364 351.1L378 351.7L392 352.3L406 353.1L420 354.0L434 354.9L448 355.9L462 357.0L476 358.2L490 359.4L504 360.7L518 362.1L532 363.5L546 365.0L560 366.5L574 368.1L588 369.7L602 371.3L616 372.9L630 374.4L644 376.0L658 377.5L672 379.0L686 380.4L700 381.7L714 382.9L728 384.0L742 385.1L756 385.9L770 386.7L784 387.3L798 387.8L812 388.1L826 388.2L840 388.3L854 388.1L868 387.9L882 387.5L896 387.0L910 386.3L924 385.6L938 384.8L952 383.9L966 382.9L980 381.9L994 380.9L1008 379.8L1022 378.7L1036 377.6L1050 376.5L1064 375.4L1078 374.3L1092 373.3L1106 372.2L1120 371.2L1134 370.2L1148 369.2L1162 368.3L1176 367.4L1190 366.5L1204 365.6L1218 364.7L1232 363.9" stroke="#26594A" stroke-opacity="0.24" stroke-width="1.3"></path>
  <path d="M0 374.1L14 373.5L28 372.9L42 372.4L56 371.9L70 371.4L84 370.9L98 370.6L112 370.2L126 370.0L140 369.7L154 369.6L168 369.5L182 369.5L196 369.5L210 369.5L224 369.7L238 369.9L252 370.1L266 370.4L280 370.7L294 371.0L308 371.4L322 371.8L336 372.3L350 372.8L364 373.3L378 373.9L392 374.4L406 375.0L420 375.7L434 376.4L448 377.1L462 377.9L476 378.7L490 379.6L504 380.5L518 381.5L532 382.5L546 383.7L560 384.8L574 386.1L588 387.3L602 388.7L616 390.1L630 391.5L644 392.9L658 394.4L672 395.8L686 397.3L700 398.7L714 400.1L728 401.4L742 402.7L756 403.8L770 404.9L784 405.9L798 406.7L812 407.4L826 407.9L840 408.3L854 408.5L868 408.6L882 408.5L896 408.3L910 407.9L924 407.4L938 406.7L952 405.9L966 405.0L980 403.9L994 402.8L1008 401.6L1022 400.3L1036 399.0L1050 397.7L1064 396.3L1078 394.9L1092 393.4L1106 392.0L1120 390.7L1134 389.3L1148 388.0L1162 386.7L1176 385.5L1190 384.3L1204 383.2L1218 382.2L1232 381.2" stroke="#26594A" stroke-opacity="0.23" stroke-width="1.3"></path>
  <path d="M0 390.8L14 390.6L28 390.4L42 390.3L56 390.2L70 390.2L84 390.2L98 390.3L112 390.4L126 390.6L140 390.8L154 391.0L168 391.2L182 391.4L196 391.7L210 391.9L224 392.2L238 392.4L252 392.6L266 392.9L280 393.1L294 393.3L308 393.5L322 393.7L336 394.0L350 394.2L364 394.4L378 394.7L392 395.0L406 395.3L420 395.7L434 396.2L448 396.7L462 397.2L476 397.9L490 398.7L504 399.5L518 400.5L532 401.5L546 402.7L560 403.9L574 405.3L588 406.7L602 408.2L616 409.8L630 411.4L644 413.1L658 414.7L672 416.4L686 418.1L700 419.7L714 421.3L728 422.8L742 424.2L756 425.5L770 426.6L784 427.6L798 428.4L812 429.0L826 429.5L840 429.7L854 429.8L868 429.6L882 429.3L896 428.8L910 428.1L924 427.2L938 426.2L952 425.0L966 423.7L980 422.3L994 420.9L1008 419.3L1022 417.7L1036 416.1L1050 414.5L1064 412.9L1078 411.4L1092 409.8L1106 408.4L1120 406.9L1134 405.6L1148 404.4L1162 403.2L1176 402.2L1190 401.2L1204 400.3L1218 399.6L1232 398.9" stroke="#26594A" stroke-opacity="0.22" stroke-width="1.3"></path>
  <path d="M0 411.4L14 411.6L28 411.8L42 412.0L56 412.2L70 412.4L84 412.6L98 412.9L112 413.0L126 413.2L140 413.4L154 413.5L168 413.6L182 413.7L196 413.7L210 413.8L224 413.8L238 413.8L252 413.8L266 413.8L280 413.8L294 413.8L308 413.8L322 413.9L336 414.0L350 414.1L364 414.3L378 414.6L392 415.0L406 415.4L420 415.9L434 416.5L448 417.2L462 418.0L476 419.0L490 420.0L504 421.1L518 422.4L532 423.7L546 425.1L560 426.6L574 428.2L588 429.8L602 431.4L616 433.1L630 434.8L644 436.4L658 438.0L672 439.6L686 441.1L700 442.5L714 443.8L728 444.9L742 445.9L756 446.8L770 447.4L784 447.9L798 448.2L812 448.3L826 448.2L840 448.0L854 447.5L868 446.9L882 446.1L896 445.2L910 444.1L924 442.9L938 441.6L952 440.3L966 438.8L980 437.4L994 435.9L1008 434.4L1022 432.9L1036 431.5L1050 430.1L1064 428.8L1078 427.5L1092 426.3L1106 425.2L1120 424.2L1134 423.3L1148 422.4L1162 421.7L1176 421.0L1190 420.4L1204 419.9L1218 419.4L1232 419.0" stroke="#26594A" stroke-opacity="0.22" stroke-width="1.3"></path>
  <path d="M0 434.1L14 434.3L28 434.4L42 434.5L56 434.6L70 434.6L84 434.6L98 434.6L112 434.5L126 434.5L140 434.4L154 434.3L168 434.2L182 434.1L196 434.1L210 434.0L224 434.0L238 434.0L252 434.0L266 434.1L280 434.2L294 434.4L308 434.7L322 435.0L336 435.4L350 435.8L364 436.4L378 437.0L392 437.7L406 438.5L420 439.4L434 440.3L448 441.3L462 442.4L476 443.5L490 444.7L504 446.0L518 447.3L532 448.6L546 449.9L560 451.2L574 452.5L588 453.8L602 455.1L616 456.4L630 457.6L644 458.7L658 459.7L672 460.7L686 461.5L700 462.3L714 462.9L728 463.4L742 463.8L756 464.0L770 464.1L784 464.1L798 463.9L812 463.6L826 463.2L840 462.6L854 462.0L868 461.2L882 460.4L896 459.5L910 458.5L924 457.5L938 456.4L952 455.4L966 454.3L980 453.2L994 452.1L1008 451.0L1022 450.0L1036 449.0L1050 448.0L1064 447.1L1078 446.2L1092 445.4L1106 444.6L1120 443.9L1134 443.2L1148 442.5L1162 441.9L1176 441.3L1190 440.7L1204 440.2L1218 439.6L1232 439.1" stroke="#26594A" stroke-opacity="0.21" stroke-width="1.3"></path>
  <path d="M0 455.4L14 455.4L28 455.3L42 455.2L56 455.1L70 455.0L84 454.9L98 454.8L112 454.8L126 454.7L140 454.8L154 454.8L168 454.9L182 455.1L196 455.3L210 455.5L224 455.8L238 456.2L252 456.6L266 457.1L280 457.6L294 458.2L308 458.8L322 459.5L336 460.2L350 460.9L364 461.7L378 462.5L392 463.3L406 464.2L420 465.0L434 465.8L448 466.7L462 467.5L476 468.4L490 469.2L504 470.0L518 470.8L532 471.6L546 472.3L560 473.0L574 473.7L588 474.4L602 475.0L616 475.6L630 476.1L644 476.6L658 477.0L672 477.4L686 477.8L700 478.1L714 478.3L728 478.5L742 478.6L756 478.7L770 478.7L784 478.6L798 478.4L812 478.2L826 478.0L840 477.6L854 477.3L868 476.8L882 476.3L896 475.8L910 475.2L924 474.5L938 473.9L952 473.1L966 472.4L980 471.6L994 470.8L1008 470.0L1022 469.2L1036 468.4L1050 467.5L1064 466.7L1078 465.8L1092 465.0L1106 464.1L1120 463.2L1134 462.4L1148 461.6L1162 460.7L1176 459.9L1190 459.1L1204 458.3L1218 457.5L1232 456.8" stroke="#26594A" stroke-opacity="0.20" stroke-width="1.3"></path>
  <path d="M0 475.7L14 475.7L28 475.8L42 475.9L56 476.0L70 476.2L84 476.4L98 476.7L112 477.0L126 477.4L140 477.8L154 478.3L168 478.8L182 479.3L196 479.9L210 480.4L224 481.0L238 481.7L252 482.3L266 482.9L280 483.5L294 484.1L308 484.7L322 485.2L336 485.7L350 486.2L364 486.7L378 487.1L392 487.5L406 487.8L420 488.2L434 488.5L448 488.7L462 489.0L476 489.2L490 489.4L504 489.6L518 489.8L532 490.0L546 490.3L560 490.5L574 490.7L588 491.0L602 491.3L616 491.6L630 491.9L644 492.2L658 492.6L672 492.9L686 493.3L700 493.6L714 494.0L728 494.3L742 494.6L756 494.9L770 495.1L784 495.3L798 495.4L812 495.5L826 495.5L840 495.4L854 495.3L868 495.1L882 494.8L896 494.4L910 493.9L924 493.3L938 492.7L952 492.0L966 491.2L980 490.3L994 489.4L1008 488.5L1022 487.5L1036 486.5L1050 485.4L1064 484.4L1078 483.4L1092 482.3L1106 481.3L1120 480.3L1134 479.3L1148 478.4L1162 477.6L1176 476.8L1190 476.0L1204 475.4L1218 474.8L1232 474.3" stroke="#26594A" stroke-opacity="0.19" stroke-width="1.3"></path>
  <path d="M0 498.4L14 498.8L28 499.2L42 499.7L56 500.2L70 500.8L84 501.3L98 501.9L112 502.5L126 503.1L140 503.6L154 504.2L168 504.7L182 505.2L196 505.6L210 506.1L224 506.4L238 506.7L252 507.0L266 507.2L280 507.4L294 507.5L308 507.5L322 507.5L336 507.5L350 507.4L364 507.3L378 507.2L392 507.1L406 506.9L420 506.8L434 506.6L448 506.5L462 506.4L476 506.3L490 506.3L504 506.3L518 506.4L532 506.6L546 506.8L560 507.0L574 507.3L588 507.7L602 508.1L616 508.6L630 509.1L644 509.6L658 510.2L672 510.7L686 511.3L700 511.8L714 512.4L728 512.8L742 513.3L756 513.6L770 513.9L784 514.1L798 514.2L812 514.2L826 514.1L840 513.9L854 513.6L868 513.2L882 512.7L896 512.1L910 511.4L924 510.6L938 509.8L952 508.8L966 507.9L980 506.9L994 505.8L1008 504.8L1022 503.8L1036 502.7L1050 501.8L1064 500.8L1078 499.9L1092 499.1L1106 498.4L1120 497.7L1134 497.1L1148 496.6L1162 496.2L1176 495.9L1190 495.7L1204 495.6L1218 495.6L1232 495.6" stroke="#26594A" stroke-opacity="0.19" stroke-width="1.3"></path>
  <path d="M0 524.1L14 524.6L28 525.1L42 525.7L56 526.1L70 526.6L84 527.0L98 527.3L112 527.6L126 527.8L140 528.0L154 528.1L168 528.1L182 528.1L196 528.0L210 527.9L224 527.7L238 527.5L252 527.2L266 526.9L280 526.6L294 526.3L308 525.9L322 525.6L336 525.2L350 524.9L364 524.6L378 524.3L392 524.1L406 523.9L420 523.8L434 523.7L448 523.7L462 523.8L476 523.9L490 524.1L504 524.4L518 524.7L532 525.1L546 525.5L560 526.0L574 526.5L588 527.0L602 527.6L616 528.1L630 528.7L644 529.2L658 529.8L672 530.2L686 530.7L700 531.1L714 531.4L728 531.6L742 531.8L756 531.9L770 531.9L784 531.8L798 531.6L812 531.3L826 530.9L840 530.4L854 529.9L868 529.3L882 528.6L896 527.9L910 527.2L924 526.4L938 525.6L952 524.9L966 524.1L980 523.3L994 522.6L1008 522.0L1022 521.4L1036 520.9L1050 520.4L1064 520.0L1078 519.7L1092 519.5L1106 519.3L1120 519.3L1134 519.3L1148 519.4L1162 519.5L1176 519.7L1190 520.0L1204 520.3L1218 520.6L1232 521.0" stroke="#26594A" stroke-opacity="0.18" stroke-width="1.3"></path>
  <path d="M0 548.8L14 548.9L28 549.0L42 549.1L56 549.0L70 548.9L84 548.8L98 548.6L112 548.3L126 548.0L140 547.7L154 547.3L168 546.9L182 546.5L196 546.1L210 545.6L224 545.2L238 544.8L252 544.4L266 544.1L280 543.7L294 543.4L308 543.2L322 543.0L336 542.8L350 542.7L364 542.7L378 542.7L392 542.7L406 542.9L420 543.0L434 543.2L448 543.4L462 543.7L476 544.0L490 544.3L504 544.7L518 545.1L532 545.4L546 545.8L560 546.2L574 546.5L588 546.9L602 547.2L616 547.5L630 547.7L644 547.9L658 548.1L672 548.2L686 548.3L700 548.4L714 548.4L728 548.3L742 548.2L756 548.0L770 547.9L784 547.6L798 547.4L812 547.1L826 546.8L840 546.5L854 546.1L868 545.8L882 545.5L896 545.2L910 544.9L924 544.6L938 544.4L952 544.1L966 544.0L980 543.8L994 543.7L1008 543.7L1022 543.7L1036 543.7L1050 543.8L1064 543.9L1078 544.0L1092 544.2L1106 544.4L1120 544.6L1134 544.8L1148 545.0L1162 545.2L1176 545.4L1190 545.6L1204 545.8L1218 545.9L1232 546.1" stroke="#26594A" stroke-opacity="0.18" stroke-width="1.3"></path>
  <ellipse cx="818.4000000000001" cy="271.59999999999997" rx="30" ry="17" stroke="#26594A" stroke-opacity="0.55" stroke-width="1.5"></ellipse>
  <ellipse cx="818.4000000000001" cy="271.59999999999997" rx="15" ry="8" stroke="#26594A" stroke-opacity="0.47" stroke-width="1.5"></ellipse>
  <circle cx="818.4000000000001" cy="271.59999999999997" r="2.4" fill="#26594A" fill-opacity="0.55"></circle>
</svg>