<svg xmlns="http://www.w3.org/2000/svg" viewBox="0 0 1240 560" fill="none" role="img" aria-label="Cedarwave grainwave motif">
  <path d="M0 18.0L14 18.6L28 19.2L42 19.8L56 20.4L70 20.9L84 21.4L98 21.8L112 22.2L126 22.6L140 22.8L154 23.1L168 23.2L182 23.3L196 23.3L210 23.3L224 23.2L238 23.0L252 22.8L266 22.5L280 22.2L294 21.8L308 21.4L322 20.9L336 20.4L350 19.9L364 19.4L378 18.8L392 18.2L406 17.6L420 17.1L434 16.5L448 15.9L462 15.3L476 14.8L490 14.2L504 13.7L518 13.2L532 12.7L546 12.2L560 11.8L574 11.3L588 10.9L602 10.6L616 10.2L630 9.9L644 9.6L658 9.3L672 9.0L686 8.8L700 8.6L714 8.4L728 8.2L742 8.0L756 7.9L770 7.7L784 7.6L798 7.5L812 7.4L826 7.3L840 7.2L854 7.2L868 7.1L882 7.1L896 7.0L910 7.0L924 7.0L938 7.0L952 7.0L966 7.1L980 7.2L994 7.3L1008 7.4L1022 7.6L1036 7.8L1050 8.1L1064 8.3L1078 8.7L1092 9.0L1106 9.4L1120 9.8L1134 10.3L1148 10.7L1162 11.2L1176 11.7L1190 12.3L1204 12.8L1218 13.3L1232 13.9" stroke="#772B40" stroke-opacity="0.16" stroke-width="1.3"></path>
  <path d="M0 43.7L14 44.0L28 44.2L42 44.4L56 44.5L70 44.6L84 44.6L98 44.6L112 44.5L126 44.3L140 44.1L154 43.9L168 43.6L182 43.4L196 43.0L210 42.7L224 42.3L238 42.0L252 41.6L266 41.2L280 40.8L294 40.5L308 40.1L322 39.7L336 39.3L350 39.0L364 38.6L378 38.2L392 37.8L406 37.4L420 37.0L434 36.6L448 36.1L462 35.7L476 35.2L490 34.7L504 34.1L518 33.5L532 32.9L546 32.3L560 31.6L574 31.0L588 30.3L602 29.5L616 28.8L630 28.1L644 27.4L658 26.7L672 26.0L686 25.4L700 24.8L714 24.2L728 23.7L742 23.2L756 22.8L770 22.5L784 22.2L798 22.0L812 21.9L826 21.9L840 21.9L854 22.1L868 22.3L882 22.6L896 22.9L910 23.3L924 23.8L938 24.4L952 25.0L966 25.6L980 26.3L994 27.1L1008 27.8L1022 28.6L1036 29.4L1050 30.2L1064 31.0L1078 31.8L1092 32.5L1106 33.3L1120 34.0L1134 34.7L1148 35.4L1162 36.0L1176 36.6L1190 37.1L1204 37.6L1218 38.0L1232 38.4" stroke="#772B40" stroke-opacity="0.17" stroke-width="1.3"></path>
  <path d="M0 65.5L14 65.3L28 65.1L42 64.9L56 64.6L70 64.3L84 64.0L98 63.8L112 63.5L126 63.2L140 62.9L154 62.7L168 62.4L182 62.2L196 62.0L210 61.8L224 61.6L238 61.4L252 61.2L266 61.1L280 60.9L294 60.7L308 60.5L322 60.3L336 60.1L350 59.8L364 59.5L378 59.1L392 58.7L406 58.2L420 57.7L434 57.0L448 56.3L462 55.6L476 54.7L490 53.8L504 52.9L518 51.8L532 50.8L546 49.7L560 48.5L574 47.4L588 46.2L602 45.1L616 44.0L630 43.0L644 42.0L658 41.1L672 40.2L686 39.5L700 38.8L714 38.3L728 37.9L742 37.7L756 37.6L770 37.6L784 37.7L798 38.0L812 38.4L826 38.9L840 39.6L854 40.3L868 41.2L882 42.1L896 43.1L910 44.1L924 45.2L938 46.3L952 47.4L966 48.6L980 49.7L994 50.8L1008 51.8L1022 52.8L1036 53.8L1050 54.7L1064 55.5L1078 56.3L1092 57.0L1106 57.6L1120 58.1L1134 58.6L1148 59.0L1162 59.3L1176 59.6L1190 59.9L1204 60.0L1218 60.2L1232 60.3" stroke="#772B40" stroke-opacity="0.17" stroke-width="1.3"></path>
  <path d="M0 84.3L14 84.0L28 83.8L42 83.6L56 83.4L70 83.3L84 83.1L98 83.0L112 82.9L126 82.9L140 82.8L154 82.8L168 82.8L182 82.8L196 82.8L210 82.7L224 82.7L238 82.6L252 82.5L266 82.3L280 82.1L294 81.8L308 81.4L322 81.0L336 80.5L350 79.9L364 79.3L378 78.5L392 77.6L406 76.7L420 75.7L434 74.6L448 73.4L462 72.2L476 71.0L490 69.6L504 68.3L518 67.0L532 65.6L546 64.3L560 63.0L574 61.8L588 60.6L602 59.5L616 58.5L630 57.6L644 56.9L658 56.3L672 55.8L686 55.5L700 55.3L714 55.3L728 55.5L742 55.8L756 56.2L770 56.8L784 57.6L798 58.4L812 59.3L826 60.4L840 61.5L854 62.7L868 63.9L882 65.1L896 66.4L910 67.6L924 68.8L938 70.0L952 71.2L966 72.3L980 73.3L994 74.2L1008 75.1L1022 75.9L1036 76.7L1050 77.3L1064 77.9L1078 78.4L1092 78.8L1106 79.2L1120 79.5L1134 79.8L1148 80.1L1162 80.3L1176 80.5L1190 80.7L1204 80.9L1218 81.1L1232 81.2" stroke="#772B40" stroke-opacity="0.18" stroke-width="1.3"></path>
  <path d="M0 104.0L14 103.9L28 104.0L42 104.0L56 104.0L70 104.1L84 104.1L98 104.2L112 104.2L126 104.2L140 104.2L154 104.1L168 104.0L182 103.8L196 103.6L210 103.4L224 103.0L238 102.7L252 102.2L266 101.6L280 101.0L294 100.3L308 99.6L322 98.7L336 97.8L350 96.8L364 95.8L378 94.7L392 93.5L406 92.3L420 91.1L434 89.9L448 88.6L462 87.4L476 86.1L490 84.9L504 83.7L518 82.5L532 81.4L546 80.4L560 79.4L574 78.6L588 77.8L602 77.2L616 76.6L630 76.2L644 75.9L658 75.8L672 75.8L686 75.9L700 76.1L714 76.5L728 77.0L742 77.6L756 78.3L770 79.1L784 79.9L798 80.9L812 81.9L826 82.9L840 84.0L854 85.1L868 86.2L882 87.3L896 88.4L910 89.4L924 90.5L938 91.5L952 92.4L966 93.3L980 94.1L994 94.9L1008 95.7L1022 96.4L1036 97.1L1050 97.7L1064 98.3L1078 98.8L1092 99.4L1106 99.9L1120 100.4L1134 100.9L1148 101.3L1162 101.8L1176 102.3L1190 102.8L1204 103.3L1218 103.7L1232 104.2" stroke="#772B40" stroke-opacity="0.19" stroke-width="1.3"></path>
  <path d="M0 125.3L14 125.3L28 125.3L42 125.2L56 125.1L70 125.0L84 124.8L98 124.6L112 124.4L126 124.0L140 123.7L154 123.2L168 122.7L182 122.2L196 121.6L210 121.0L224 120.3L238 119.6L252 118.8L266 118.0L280 117.2L294 116.3L308 115.5L322 114.6L336 113.7L350 112.7L364 111.8L378 110.9L392 110.0L406 109.1L420 108.1L434 107.2L448 106.4L462 105.5L476 104.6L490 103.8L504 103.0L518 102.3L532 101.6L546 100.9L560 100.3L574 99.7L588 99.2L602 98.8L616 98.4L630 98.1L644 97.9L658 97.8L672 97.7L686 97.8L700 97.9L714 98.1L728 98.4L742 98.8L756 99.3L770 99.9L784 100.5L798 101.2L812 102.0L826 102.8L840 103.7L854 104.6L868 105.6L882 106.6L896 107.6L910 108.6L924 109.7L938 110.7L952 111.8L966 112.8L980 113.9L994 114.9L1008 115.9L1022 116.9L1036 117.9L1050 118.9L1064 119.8L1078 120.7L1092 121.6L1106 122.4L1120 123.3L1134 124.0L1148 124.8L1162 125.5L1176 126.1L1190 126.7L1204 127.2L1218 127.7L1232 128.1" stroke="#772B40" stroke-opacity="0.19" stroke-width="1.3"></path>
  <path d="M0 145.1L14 144.8L28 144.4L42 144.0L56 143.6L70 143.1L84 142.6L98 142.0L112 141.4L126 140.8L140 140.2L154 139.6L168 139.0L182 138.4L196 137.8L210 137.2L224 136.6L238 136.1L252 135.5L266 135.0L280 134.5L294 134.0L308 133.5L322 133.1L336 132.6L350 132.2L364 131.7L378 131.2L392 130.8L406 130.2L420 129.7L434 129.2L448 128.6L462 127.9L476 127.3L490 126.6L504 125.9L518 125.1L532 124.3L546 123.6L560 122.8L574 122.0L588 121.2L602 120.4L616 119.7L630 119.0L644 118.4L658 117.9L672 117.5L686 117.1L700 116.9L714 116.8L728 116.8L742 116.9L756 117.2L770 117.6L784 118.2L798 118.8L812 119.6L826 120.6L840 121.6L854 122.7L868 123.9L882 125.2L896 126.6L910 128.0L924 129.5L938 130.9L952 132.4L966 133.9L980 135.3L994 136.8L1008 138.2L1022 139.5L1036 140.8L1050 142.0L1064 143.1L1078 144.1L1092 145.0L1106 145.9L1120 146.6L1134 147.3L1148 147.8L1162 148.2L1176 148.5L1190 148.8L1204 148.9L1218 148.9L1232 148.9" stroke="#772B40" stroke-opacity="0.20" stroke-width="1.3"></path>
  <path d="M0 162.0L14 161.4L28 160.9L42 160.4L56 159.9L70 159.4L84 158.9L98 158.5L112 158.1L126 157.8L140 157.5L154 157.2L168 157.0L182 156.8L196 156.7L210 156.6L224 156.5L238 156.5L252 156.5L266 156.4L280 156.4L294 156.4L308 156.3L322 156.2L336 156.0L350 155.8L364 155.5L378 155.2L392 154.7L406 154.2L420 153.6L434 152.8L448 152.0L462 151.1L476 150.1L490 149.0L504 147.8L518 146.6L532 145.3L546 144.0L560 142.7L574 141.4L588 140.1L602 138.9L616 137.8L630 136.7L644 135.8L658 135.0L672 134.4L686 133.9L700 133.6L714 133.5L728 133.6L742 133.8L756 134.3L770 135.0L784 135.8L798 136.8L812 138.0L826 139.3L840 140.8L854 142.3L868 144.0L882 145.7L896 147.4L910 149.2L924 150.9L938 152.7L952 154.4L966 156.0L980 157.5L994 159.0L1008 160.3L1022 161.5L1036 162.6L1050 163.6L1064 164.4L1078 165.1L1092 165.7L1106 166.1L1120 166.4L1134 166.6L1148 166.7L1162 166.7L1176 166.5L1190 166.3L1204 166.0L1218 165.7L1232 165.3" stroke="#772B40" stroke-opacity="0.21" stroke-width="1.3"></path>
  <path d="M0 179.0L14 178.7L28 178.6L42 178.4L56 178.4L70 178.4L84 178.4L98 178.5L112 178.7L126 178.9L140 179.1L154 179.4L168 179.7L182 180.0L196 180.2L210 180.5L224 180.7L238 180.9L252 181.1L266 181.2L280 181.2L294 181.1L308 180.9L322 180.7L336 180.3L350 179.8L364 179.1L378 178.4L392 177.5L406 176.5L420 175.4L434 174.2L448 172.8L462 171.4L476 169.9L490 168.3L504 166.7L518 165.0L532 163.4L546 161.7L560 160.2L574 158.6L588 157.2L602 155.8L616 154.6L630 153.6L644 152.7L658 152.0L672 151.5L686 151.2L700 151.1L714 151.3L728 151.6L742 152.2L756 152.9L770 153.9L784 155.0L798 156.2L812 157.6L826 159.1L840 160.7L854 162.4L868 164.1L882 165.8L896 167.5L910 169.2L924 170.8L938 172.3L952 173.8L966 175.1L980 176.4L994 177.5L1008 178.5L1022 179.3L1036 180.1L1050 180.7L1064 181.2L1078 181.6L1092 181.8L1106 182.0L1120 182.1L1134 182.1L1148 182.1L1162 182.0L1176 181.9L1190 181.8L1204 181.6L1218 181.4L1232 181.3" stroke="#772B40" stroke-opacity="0.22" stroke-width="1.3"></path>
  <path d="M0 200.2L14 200.5L28 200.8L42 201.2L56 201.6L70 202.1L84 202.5L98 202.9L112 203.4L126 203.8L140 204.1L154 204.5L168 204.8L182 205.0L196 205.2L210 205.3L224 205.3L238 205.2L252 205.0L266 204.8L280 204.4L294 203.9L308 203.3L322 202.6L336 201.8L350 200.9L364 199.8L378 198.7L392 197.4L406 196.1L420 194.7L434 193.2L448 191.6L462 189.9L476 188.3L490 186.6L504 184.8L518 183.1L532 181.5L546 179.8L560 178.2L574 176.7L588 175.3L602 174.1L616 172.9L630 171.9L644 171.1L658 170.4L672 169.9L686 169.6L700 169.5L714 169.6L728 169.9L742 170.3L756 171.0L770 171.7L784 172.6L798 173.7L812 174.8L826 176.1L840 177.4L854 178.8L868 180.2L882 181.6L896 183.0L910 184.4L924 185.8L938 187.1L952 188.3L966 189.5L980 190.6L994 191.7L1008 192.6L1022 193.5L1036 194.3L1050 195.0L1064 195.7L1078 196.3L1092 196.9L1106 197.4L1120 197.8L1134 198.3L1148 198.7L1162 199.0L1176 199.4L1190 199.8L1204 200.1L1218 200.4L1232 200.7" stroke="#772B40" stroke-opacity="0.23" stroke-width="1.3"></path>
  <path d="M0 225.1L14 225.6L28 226.0L42 226.5L56 226.8L70 227.2L84 227.5L98 227.7L112 227.9L126 228.0L140 228.1L154 228.1L168 228.0L182 227.9L196 227.7L210 227.4L224 227.1L238 226.7L252 226.2L266 225.6L280 225.0L294 224.3L308 223.5L322 222.7L336 221.8L350 220.8L364 219.7L378 218.5L392 217.2L406 215.9L420 214.5L434 213.0L448 211.5L462 209.8L476 208.2L490 206.4L504 204.7L518 202.9L532 201.1L546 199.3L560 197.5L574 195.8L588 194.1L602 192.5L616 191.0L630 189.6L644 188.3L658 187.2L672 186.3L686 185.5L700 184.9L714 184.5L728 184.2L742 184.2L756 184.4L770 184.7L784 185.3L798 186.0L812 186.8L826 187.8L840 189.0L854 190.3L868 191.6L882 193.1L896 194.6L910 196.1L924 197.7L938 199.3L952 201.0L966 202.6L980 204.1L994 205.7L1008 207.2L1022 208.6L1036 210.0L1050 211.4L1064 212.7L1078 213.9L1092 215.0L1106 216.1L1120 217.1L1134 218.1L1148 219.0L1162 219.8L1176 220.5L1190 221.2L1204 221.8L1218 222.3L1232 222.8" stroke="#772B40" stroke-opacity="0.24" stroke-width="1.3"></path>
  <path d="M0 249.5L14 249.6L28 249.7L42 249.8L56 249.9L70 249.8L84 249.8L98 249.7L112 249.6L126 249.5L140 249.3L154 249.1L168 248.9L182 248.6L196 248.3L210 248.0L224 247.7L238 247.3L252 246.9L266 246.5L280 246.0L294 245.4L308 244.8L322 244.0L336 243.2L350 242.3L364 241.3L378 240.2L392 238.9L406 237.5L420 236.0L434 234.3L448 232.5L462 230.6L476 228.5L490 226.4L504 224.1L518 221.7L532 219.3L546 216.8L560 214.4L574 211.9L588 209.4L602 207.1L616 204.8L630 202.7L644 200.7L658 198.9L672 197.3L686 195.9L700 194.8L714 193.9L728 193.4L742 193.1L756 193.1L770 193.4L784 194.0L798 194.8L812 195.9L826 197.3L840 198.8L854 200.6L868 202.5L882 204.6L896 206.7L910 209.0L924 211.4L938 213.7L952 216.1L966 218.4L980 220.8L994 223.0L1008 225.2L1022 227.3L1036 229.3L1050 231.2L1064 232.9L1078 234.5L1092 236.0L1106 237.4L1120 238.6L1134 239.7L1148 240.6L1162 241.4L1176 242.1L1190 242.7L1204 243.2L1218 243.6L1232 243.9" stroke="#772B40" stroke-opacity="0.25" stroke-width="1.3"></path>
  <path d="M0 271.0L14 270.9L28 270.9L42 270.8L56 270.7L70 270.7L84 270.6L98 270.6L112 270.5L126 270.5L140 270.5L154 270.5L168 270.5L182 270.4L196 270.4L210 270.3L224 270.1L238 269.9L252 269.7L266 269.3L280 268.9L294 268.3L308 267.6L322 266.8L336 265.8L350 264.6L364 263.3L378 261.7L392 260.0L406 258.0L420 255.9L434 253.5L448 250.9L462 248.2L476 245.3L490 242.3L504 239.1L518 235.9L532 232.6L546 229.3L560 225.9L574 222.7L588 219.5L602 216.5L616 213.6L630 211.0L644 208.6L658 206.5L672 204.7L686 203.2L700 202.1L714 201.4L728 201.0L742 201.1L756 201.5L770 202.3L784 203.4L798 204.9L812 206.7L826 208.7L840 211.0L854 213.6L868 216.3L882 219.1L896 222.0L910 225.0L924 228.0L938 231.0L952 234.0L966 236.8L980 239.6L994 242.3L1008 244.8L1022 247.1L1036 249.3L1050 251.3L1064 253.1L1078 254.8L1092 256.2L1106 257.5L1120 258.7L1134 259.7L1148 260.5L1162 261.3L1176 261.9L1190 262.4L1204 262.9L1218 263.2L1232 263.6" stroke="#772B40" stroke-opacity="0.27" stroke-width="1.3"></path>
  <path d="M0 292.2L14 292.4L28 292.6L42 292.8L56 293.0L70 293.4L84 293.7L98 294.1L112 294.5L126 294.9L140 295.4L154 295.9L168 296.4L182 296.9L196 297.5L210 298.1L224 298.7L238 299.4L252 300.0L266 300.7L280 301.5L294 302.2L308 303.1L322 303.9L336 304.8L350 305.8L364 306.9L378 308.0L392 309.3L406 310.6L420 312.0L434 313.5L448 315.0L462 316.7L476 318.5L490 320.3L504 322.2L518 324.1L532 326.0L546 328.0L560 330.0L574 331.9L588 333.7L602 335.5L616 337.2L630 338.7L644 340.1L658 341.3L672 342.3L686 343.0L700 343.6L714 343.8L728 343.9L742 343.6L756 343.1L770 342.3L784 341.3L798 340.1L812 338.6L826 336.9L840 335.0L854 333.0L868 330.8L882 328.5L896 326.1L910 323.7L924 321.2L938 318.7L952 316.3L966 313.8L980 311.4L994 309.1L1008 306.9L1022 304.8L1036 302.8L1050 300.9L1064 299.1L1078 297.5L1092 296.1L1106 294.8L1120 293.6L1134 292.6L1148 291.7L1162 291.0L1176 290.4L1190 289.9L1204 289.6L1218 289.3L1232 289.2" stroke="#772B40" stroke-opacity="0.26" stroke-width="1.3"></path>
  <path d="M0 315.4L14 315.7L28 316.1L42 316.4L56 316.7L70 317.1L84 317.4L98 317.7L112 317.9L126 318.2L140 318.4L154 318.5L168 318.7L182 318.8L196 318.9L210 319.0L224 319.1L238 319.1L252 319.2L266 319.3L280 319.5L294 319.6L308 319.9L322 320.2L336 320.6L350 321.0L364 321.6L378 322.3L392 323.2L406 324.2L420 325.3L434 326.5L448 327.9L462 329.4L476 331.1L490 332.9L504 334.7L518 336.7L532 338.7L546 340.8L560 342.8L574 344.9L588 346.9L602 348.9L616 350.7L630 352.4L644 354.0L658 355.3L672 356.5L686 357.4L700 358.1L714 358.5L728 358.7L742 358.5L756 358.1L770 357.4L784 356.5L798 355.3L812 353.9L826 352.3L840 350.4L854 348.5L868 346.4L882 344.2L896 341.9L910 339.6L924 337.2L938 334.9L952 332.7L966 330.4L980 328.3L994 326.3L1008 324.4L1022 322.7L1036 321.1L1050 319.6L1064 318.4L1078 317.3L1092 316.3L1106 315.5L1120 314.9L1134 314.4L1148 314.1L1162 313.9L1176 313.8L1190 313.8L1204 313.9L1218 314.1L1232 314.3" stroke="#772B40" stroke-opacity="0.24" stroke-width="1.3"></path>
  <path d="M0 338.6L14 338.7L28 338.8L42 338.8L56 338.7L70 338.6L84 338.5L98 338.2L112 338.0L126 337.7L140 337.4L154 337.0L168 336.7L182 336.3L196 335.9L210 335.6L224 335.3L238 335.0L252 334.8L266 334.7L280 334.6L294 334.6L308 334.8L322 335.1L336 335.5L350 336.1L364 336.8L378 337.6L392 338.6L406 339.8L420 341.1L434 342.6L448 344.2L462 345.9L476 347.8L490 349.7L504 351.7L518 353.8L532 355.9L546 357.9L560 360.0L574 362.0L588 364.0L602 365.8L616 367.5L630 369.0L644 370.3L658 371.5L672 372.4L686 373.0L700 373.5L714 373.6L728 373.6L742 373.2L756 372.7L770 371.9L784 370.9L798 369.7L812 368.3L826 366.7L840 365.1L854 363.3L868 361.5L882 359.6L896 357.7L910 355.9L924 354.0L938 352.2L952 350.6L966 349.0L980 347.5L994 346.1L1008 344.9L1022 343.8L1036 342.8L1050 342.0L1064 341.3L1078 340.7L1092 340.3L1106 339.9L1120 339.7L1134 339.5L1148 339.4L1162 339.4L1176 339.4L1190 339.5L1204 339.6L1218 339.6L1232 339.7" stroke="#772B40" stroke-opacity="0.23" stroke-width="1.3"></path>
  <path d="M0 358.2L14 357.8L28 357.3L42 356.8L56 356.3L70 355.8L84 355.2L98 354.7L112 354.1L126 353.6L140 353.1L154 352.6L168 352.2L182 351.8L196 351.5L210 351.3L224 351.1L238 351.1L252 351.2L266 351.3L280 351.6L294 352.0L308 352.5L322 353.2L336 353.9L350 354.8L364 355.8L378 357.0L392 358.2L406 359.6L420 361.0L434 362.5L448 364.2L462 365.8L476 367.6L490 369.3L504 371.1L518 372.9L532 374.7L546 376.4L560 378.1L574 379.7L588 381.2L602 382.5L616 383.8L630 384.9L644 385.9L658 386.7L672 387.3L686 387.7L700 387.9L714 388.0L728 387.9L742 387.6L756 387.2L770 386.6L784 385.8L798 385.0L812 384.0L826 382.9L840 381.8L854 380.6L868 379.4L882 378.2L896 377.0L910 375.8L924 374.6L938 373.5L952 372.4L966 371.4L980 370.4L994 369.5L1008 368.7L1022 368.0L1036 367.3L1050 366.7L1064 366.1L1078 365.6L1092 365.1L1106 364.7L1120 364.3L1134 363.9L1148 363.5L1162 363.1L1176 362.7L1190 362.3L1204 361.9L1218 361.5L1232 361.1" stroke="#772B40" stroke-opacity="0.22" stroke-width="1.3"></path>
  <path d="M0 374.1L14 373.5L28 373.0L42 372.4L56 371.9L70 371.5L84 371.1L98 370.7L112 370.4L126 370.2L140 370.1L154 370.0L168 370.0L182 370.0L196 370.2L210 370.4L224 370.7L238 371.0L252 371.5L266 372.0L280 372.6L294 373.2L308 373.9L322 374.7L336 375.6L350 376.5L364 377.4L378 378.5L392 379.5L406 380.7L420 381.8L434 383.0L448 384.3L462 385.6L476 386.9L490 388.2L504 389.5L518 390.9L532 392.2L546 393.5L560 394.8L574 396.1L588 397.3L602 398.5L616 399.6L630 400.6L644 401.5L658 402.3L672 403.0L686 403.7L700 404.1L714 404.5L728 404.8L742 404.9L756 404.9L770 404.8L784 404.6L798 404.3L812 403.8L826 403.3L840 402.7L854 402.0L868 401.3L882 400.5L896 399.6L910 398.7L924 397.8L938 396.8L952 395.9L966 394.9L980 393.9L994 392.9L1008 392.0L1022 391.0L1036 390.1L1050 389.1L1064 388.2L1078 387.3L1092 386.4L1106 385.5L1120 384.6L1134 383.8L1148 383.0L1162 382.2L1176 381.4L1190 380.7L1204 380.0L1218 379.3L1232 378.7" stroke="#772B40" stroke-opacity="0.21" stroke-width="1.3"></path>
  <path d="M0 390.8L14 390.6L28 390.4L42 390.3L56 390.3L70 390.3L84 390.3L98 390.5L112 390.6L126 390.8L140 391.0L154 391.3L168 391.6L182 391.9L196 392.3L210 392.6L224 393.0L238 393.4L252 393.9L266 394.3L280 394.7L294 395.2L308 395.7L322 396.2L336 396.8L350 397.4L364 398.0L378 398.7L392 399.4L406 400.2L420 401.0L434 401.9L448 402.9L462 403.9L476 405.0L490 406.2L504 407.4L518 408.6L532 409.9L546 411.3L560 412.6L574 414.0L588 415.4L602 416.7L616 418.0L630 419.3L644 420.5L658 421.7L672 422.7L686 423.7L700 424.5L714 425.2L728 425.7L742 426.1L756 426.4L770 426.5L784 426.5L798 426.3L812 425.9L826 425.5L840 424.8L854 424.1L868 423.2L882 422.3L896 421.2L910 420.1L924 418.9L938 417.6L952 416.3L966 415.0L980 413.6L994 412.3L1008 410.9L1022 409.6L1036 408.3L1050 407.1L1064 405.9L1078 404.8L1092 403.7L1106 402.6L1120 401.7L1134 400.8L1148 400.0L1162 399.3L1176 398.6L1190 398.1L1204 397.6L1218 397.1L1232 396.8" stroke="#772B40" stroke-opacity="0.20" stroke-width="1.3"></path>
  <path d="M0 411.5L14 411.6L28 411.8L42 412.1L56 412.3L70 412.5L84 412.8L98 413.0L112 413.2L126 413.4L140 413.6L154 413.8L168 414.0L182 414.1L196 414.3L210 414.4L224 414.6L238 414.7L252 414.9L266 415.0L280 415.2L294 415.5L308 415.7L322 416.1L336 416.5L350 416.9L364 417.5L378 418.1L392 418.8L406 419.6L420 420.5L434 421.5L448 422.7L462 423.9L476 425.1L490 426.5L504 428.0L518 429.5L532 431.0L546 432.6L560 434.2L574 435.8L588 437.3L602 438.8L616 440.3L630 441.7L644 442.9L658 444.1L672 445.1L686 445.9L700 446.6L714 447.1L728 447.5L742 447.6L756 447.6L770 447.3L784 446.9L798 446.4L812 445.6L826 444.7L840 443.7L854 442.6L868 441.3L882 440.0L896 438.6L910 437.2L924 435.7L938 434.2L952 432.7L966 431.2L980 429.8L994 428.4L1008 427.1L1022 425.9L1036 424.7L1050 423.7L1064 422.7L1078 421.8L1092 421.0L1106 420.3L1120 419.6L1134 419.1L1148 418.7L1162 418.3L1176 417.9L1190 417.7L1204 417.5L1218 417.3L1232 417.2" stroke="#772B40" stroke-opacity="0.20" stroke-width="1.3"></path>
  <path d="M0 434.2L14 434.3L28 434.4L42 434.5L56 434.6L70 434.7L84 434.7L98 434.7L112 434.7L126 434.6L140 434.6L154 434.6L168 434.5L182 434.5L196 434.5L210 434.6L224 434.6L238 434.7L252 434.9L266 435.2L280 435.5L294 435.8L308 436.3L322 436.9L336 437.5L350 438.3L364 439.1L378 440.0L392 441.1L406 442.2L420 443.4L434 444.7L448 446.0L462 447.5L476 448.9L490 450.4L504 451.9L518 453.4L532 454.9L546 456.4L560 457.8L574 459.1L588 460.4L602 461.6L616 462.6L630 463.5L644 464.3L658 464.9L672 465.4L686 465.7L700 465.8L714 465.8L728 465.6L742 465.2L756 464.7L770 464.0L784 463.2L798 462.3L812 461.3L826 460.1L840 458.9L854 457.7L868 456.4L882 455.1L896 453.8L910 452.5L924 451.2L938 450.0L952 448.8L966 447.7L980 446.6L994 445.6L1008 444.7L1022 443.9L1036 443.1L1050 442.4L1064 441.8L1078 441.2L1092 440.8L1106 440.3L1120 439.9L1134 439.6L1148 439.2L1162 438.9L1176 438.6L1190 438.4L1204 438.1L1218 437.8L1232 437.5" stroke="#772B40" stroke-opacity="0.19" stroke-width="1.3"></path>
  <path d="M0 455.5L14 455.4L28 455.3L42 455.2L56 455.1L70 455.0L84 455.0L98 454.9L112 454.9L126 454.9L140 454.9L154 455.0L168 455.2L182 455.4L196 455.7L210 456.0L224 456.4L238 456.9L252 457.4L266 458.0L280 458.7L294 459.4L308 460.3L322 461.1L336 462.1L350 463.0L364 464.1L378 465.1L392 466.2L406 467.4L420 468.5L434 469.7L448 470.8L462 471.9L476 473.0L490 474.1L504 475.2L518 476.2L532 477.1L546 478.0L560 478.8L574 479.5L588 480.1L602 480.6L616 481.0L630 481.3L644 481.5L658 481.6L672 481.6L686 481.4L700 481.2L714 480.8L728 480.4L742 479.9L756 479.3L770 478.6L784 477.8L798 477.1L812 476.2L826 475.3L840 474.4L854 473.5L868 472.6L882 471.7L896 470.8L910 469.9L924 469.1L938 468.2L952 467.4L966 466.7L980 465.9L994 465.2L1008 464.5L1022 463.9L1036 463.3L1050 462.6L1064 462.1L1078 461.5L1092 460.9L1106 460.4L1120 459.8L1134 459.2L1148 458.7L1162 458.1L1176 457.6L1190 457.0L1204 456.5L1218 455.9L1232 455.4" stroke="#772B40" stroke-opacity="0.18" stroke-width="1.3"></path>
  <path d="M0 475.7L14 475.8L28 475.8L42 475.9L56 476.1L70 476.2L84 476.5L98 476.8L112 477.1L126 477.5L140 478.0L154 478.5L168 479.0L182 479.6L196 480.2L210 480.9L224 481.5L238 482.2L252 483.0L266 483.7L280 484.4L294 485.2L308 485.9L322 486.6L336 487.4L350 488.1L364 488.7L378 489.4L392 490.0L406 490.6L420 491.2L434 491.8L448 492.3L462 492.8L476 493.3L490 493.7L504 494.1L518 494.5L532 494.9L546 495.2L560 495.5L574 495.7L588 496.0L602 496.1L616 496.3L630 496.4L644 496.5L658 496.5L672 496.5L686 496.4L700 496.3L714 496.2L728 496.0L742 495.7L756 495.4L770 495.1L784 494.7L798 494.2L812 493.8L826 493.2L840 492.7L854 492.1L868 491.4L882 490.7L896 490.0L910 489.3L924 488.6L938 487.8L952 487.0L966 486.2L980 485.4L994 484.5L1008 483.7L1022 482.9L1036 482.0L1050 481.2L1064 480.4L1078 479.6L1092 478.8L1106 478.0L1120 477.3L1134 476.6L1148 475.9L1162 475.3L1176 474.8L1190 474.2L1204 473.8L1218 473.4L1232 473.1" stroke="#772B40" stroke-opacity="0.17" stroke-width="1.3"></path>
  <path d="M0 498.4L14 498.8L28 499.3L42 499.8L56 500.3L70 500.8L84 501.4L98 502.0L112 502.6L126 503.2L140 503.8L154 504.4L168 504.9L182 505.4L196 506.0L210 506.4L224 506.9L238 507.3L252 507.6L266 507.9L280 508.2L294 508.4L308 508.6L322 508.8L336 508.9L350 509.0L364 509.1L378 509.2L392 509.3L406 509.3L420 509.4L434 509.5L448 509.6L462 509.7L476 509.9L490 510.0L504 510.3L518 510.5L532 510.7L546 511.0L560 511.3L574 511.7L588 512.0L602 512.4L616 512.7L630 513.0L644 513.3L658 513.6L672 513.9L686 514.1L700 514.2L714 514.3L728 514.3L742 514.2L756 514.1L770 513.9L784 513.6L798 513.2L812 512.7L826 512.2L840 511.5L854 510.8L868 510.1L882 509.2L896 508.4L910 507.4L924 506.5L938 505.5L952 504.5L966 503.5L980 502.5L994 501.6L1008 500.6L1022 499.7L1036 498.9L1050 498.1L1064 497.3L1078 496.6L1092 496.0L1106 495.5L1120 495.1L1134 494.7L1148 494.4L1162 494.3L1176 494.2L1190 494.1L1204 494.2L1218 494.4L1232 494.6" stroke="#772B40" stroke-opacity="0.17" stroke-width="1.3"></path>
  <path d="M0 524.1L14 524.6L28 525.2L42 525.7L56 526.2L70 526.6L84 527.0L98 527.4L112 527.7L126 527.9L140 528.1L154 528.2L168 528.3L182 528.3L196 528.3L210 528.2L224 528.1L238 527.9L252 527.7L266 527.5L280 527.3L294 527.1L308 526.9L322 526.6L336 526.4L350 526.3L364 526.1L378 526.1L392 526.0L406 526.0L420 526.1L434 526.2L448 526.4L462 526.7L476 527.0L490 527.4L504 527.8L518 528.2L532 528.7L546 529.2L560 529.7L574 530.2L588 530.8L602 531.2L616 531.7L630 532.1L644 532.5L658 532.7L672 533.0L686 533.1L700 533.1L714 533.1L728 532.9L742 532.6L756 532.3L770 531.8L784 531.3L798 530.6L812 529.9L826 529.2L840 528.3L854 527.4L868 526.5L882 525.6L896 524.7L910 523.7L924 522.8L938 521.9L952 521.1L966 520.3L980 519.6L994 518.9L1008 518.4L1022 517.9L1036 517.5L1050 517.2L1064 517.0L1078 516.8L1092 516.8L1106 516.9L1120 517.0L1134 517.2L1148 517.5L1162 517.8L1176 518.2L1190 518.6L1204 519.1L1218 519.6L1232 520.1" stroke="#772B40" stroke-opacity="0.16" stroke-width="1.3"></path>
  <path d="M0 548.8L14 548.9L28 549.0L42 549.1L56 549.0L70 549.0L84 548.8L98 548.6L112 548.4L126 548.1L140 547.8L154 547.4L168 547.1L182 546.7L196 546.3L210 545.9L224 545.5L238 545.2L252 544.9L266 544.6L280 544.4L294 544.2L308 544.0L322 543.9L336 543.9L350 543.9L364 544.0L378 544.2L392 544.4L406 544.7L420 545.0L434 545.4L448 545.8L462 546.2L476 546.7L490 547.2L504 547.6L518 548.1L532 548.6L546 549.0L560 549.4L574 549.8L588 550.1L602 550.4L616 550.6L630 550.7L644 550.7L658 550.7L672 550.6L686 550.4L700 550.1L714 549.8L728 549.4L742 548.9L756 548.4L770 547.8L784 547.2L798 546.6L812 545.9L826 545.3L840 544.6L854 544.0L868 543.4L882 542.8L896 542.3L910 541.9L924 541.5L938 541.1L952 540.9L966 540.7L980 540.6L994 540.5L1008 540.5L1022 540.6L1036 540.8L1050 541.0L1064 541.2L1078 541.5L1092 541.9L1106 542.2L1120 542.6L1134 543.0L1148 543.4L1162 543.7L1176 544.1L1190 544.4L1204 544.7L1218 545.0L1232 545.3" stroke="#772B40" stroke-opacity="0.16" stroke-width="1.3"></path>
  <ellipse cx="719.1999999999999" cy="271.59999999999997" rx="30" ry="17" stroke="#772B40" stroke-opacity="0.5" stroke-width="1.5"></ellipse>
  <ellipse cx="719.1999999999999" cy="271.59999999999997" rx="15" ry="8" stroke="#772B40" stroke-opacity="0.42" stroke-width="1.5"></ellipse>
  <circle cx="719.1999999999999" cy="271.59999999999997" r="2.4" fill="#772B40" fill-opacity="0.5"></circle>
</svg>